<?xml version="1.0" encoding="utf-8"?>
<!-- Generator: Adobe Illustrator 16.0.0, SVG Export Plug-In . SVG Version: 6.00 Build 0)  -->
<!DOCTYPE svg PUBLIC "-//W3C//DTD SVG 1.0//EN" "http://www.w3.org/TR/2001/REC-SVG-20010904/DTD/svg10.dtd">
<svg version="1.0" id="Layer_1" xmlns="http://www.w3.org/2000/svg" xmlns:xlink="http://www.w3.org/1999/xlink" x="0px" y="0px"
	 width="100px" height="100px" viewBox="0 0 100 100" enable-background="new 0 0 100 100" xml:space="preserve">
<path fill="none" stroke="#000000" stroke-width="2" stroke-linecap="round" stroke-linejoin="round" stroke-miterlimit="10" d="
	M85.509,22.089v-0.007c-23.669-9.801-49.078-9.079-71.014,0.007l-0.007,0.002c-6.212,14.999-5.754,31.1,0.003,45.002l0.003,0.007
	c15.19,6.29,31.093,8.223,46.342,6.414l10.412,10.414C71.91,84.59,72.826,85,73.839,85c2.013,0,3.662-1.647,3.662-3.662V69.979
	c2.712-0.844,5.385-1.802,8.008-2.887h0.003C91.724,52.092,91.265,35.99,85.509,22.089z"/>
<path fill="none" stroke="#000000" stroke-width="2" stroke-linecap="round" stroke-linejoin="round" stroke-miterlimit="10" d="
	M27.501,34.59h20H27.501z"/>
<path fill="none" stroke="#000000" stroke-width="2" stroke-linecap="round" stroke-linejoin="round" stroke-miterlimit="10" d="
	M27.501,44.589h45.002H27.501z"/>
<path fill="none" stroke="#000000" stroke-width="2" stroke-linecap="round" stroke-linejoin="round" stroke-miterlimit="10" d="
	M27.501,54.59h35H27.501z"/>
</svg>
